<?xml version="1.0" encoding="utf-8"?>
<!-- Svg Vector Icons : http://www.onlinewebfonts.com/icon -->
<!DOCTYPE svg PUBLIC "-//W3C//DTD SVG 1.1//EN" "http://www.w3.org/Graphics/SVG/1.1/DTD/svg11.dtd">
<svg version="1.1" xmlns="http://www.w3.org/2000/svg" xmlns:xlink="http://www.w3.org/1999/xlink" x="0px" y="0px" viewBox="0 0 1000 1000" enable-background="new 0 0 1000 1000" xml:space="preserve">
<metadata> Svg Vector Icons : http://www.onlinewebfonts.com/icon </metadata>
<g><path d="M375.9,131.8L483.4,24.3c0,0,13.3-15.8,27.9,0l110.1,111.2l-23.8,49.4l-90.5,89.8c0,0-12.4,9-26.3,0l-89.7-89.8L375.9,131.8z"/><path d="M621.4,135.5l-23.8,49.4c0,0,46.9,12.1,74.2,29.4l26.8-46.9C698.7,167.4,645.4,138.3,621.4,135.5z"/><path d="M698.7,167.4l-26.8,46.9c0,0,70.3,31.3,124.4,106.1l44.9-30.7C841.2,289.6,789.1,216.2,698.7,167.4z"/><path d="M841.2,289.6l-44.9,30.7c0,0,79.6,82.1,77.3,244.1l53.1,8.5C926.8,572.9,938.6,408.1,841.2,289.6z"/><path d="M926.8,572.9l-53.1-8.5l-117.2,54.2c0,0-20.5,10.1-9.8,33.8l54.8,119.1l51.3,20.8l125.8-59.2c0,0,17.5-7.8,9.1-28.2L926.8,572.9z"/><path d="M852.8,792.4l-51.3-20.8c0,0-70.6,108.9-204.4,143.4l13,52C610.1,966.9,763.6,929.6,852.8,792.4z"/><path d="M610.1,966.9l-13-52c0,0-115.7,37.3-226.3-6.8l-20.9,49.2C349.9,957.3,476.4,1007.5,610.1,966.9z"/><path d="M349.9,957.3l20.9-49.2c0,0-101-29.3-177.3-127l-61.5,5.7C132.1,786.8,202,905.4,349.9,957.3z"/><path d="M132.1,786.8l61.5-5.7l57.9-129.2c0,0,15-19.6-10.2-33.1c-0.4-0.2-0.9-0.5-1.4-0.7c-27.1-13.4-124.7-56.4-124.7-56.4l-52.5,29.9l-52,112.9c0,0-5.1,23.6,12.9,32.1L132.1,786.8z"/><path d="M62.7,591.5l52.5-29.9c0,0-8.5-114,58.2-214.5l-45.2-29.9C128.1,317.3,50,422.5,62.7,591.5z"/><path d="M128.1,317.3l45.2,29.9c0,0,68.8-124.7,217.8-162.3l-15.2-53C375.9,131.8,228.6,167.1,128.1,317.3z"/></g>
</svg>