<svg width="16" height="16" xmlns="http://www.w3.org/2000/svg">
 <metadata id="metadata8">image/svg+xml</metadata>

 <g>
  <title>background</title>
  <rect fill="none" id="canvas_background" height="402" width="582" y="-1" x="-1"/>
 </g>
 <g>
  <title>Layer 1</title>
  <path fill="#000000" id="bank" d="m1,3l0,7c0,0.627119 0.423729,1 1,1l12,0c0.576271,0 1,-0.423729 1,-1l0,-7l-14,0zm3,1l8,0c0,1 1,2 2,2l0,2c-1,0 -2,1 -2,2l-8,0c0,-1 -1,-2 -2,-2l0,-2c1,0 2,-1 2,-2zm4,1c-1.656854,0 -3,0.895431 -3,2c0,1.10457 1.343146,2 3,2c1.656855,0 3,-0.89543 3,-2c0,-1.104569 -1.343145,-2 -3,-2zm-11,5.5c4,2.126577 4.448696,2.5 5,2.5l12,0c0.551304,0 1,-0.445333 1,-1.5c-0.288136,0.271186 -0.559322,0.5 -1,0.5l-12,0c-0.440678,0 -0.728814,-0.245763 -1,-0.5l-4,-1z"/>
 </g>
</svg>