<svg width="16" height="16" xmlns="http://www.w3.org/2000/svg">
 <metadata id="metadata8">image/svg+xml</metadata>

 <g>
  <title>background</title>
  <rect fill="none" id="canvas_background" height="402" width="582" y="-1" x="-1"/>
 </g>
 <g>
  <title>Layer 1</title>
  <rect fill="none" id="rect4174" y="0" x="0" height="16" width="16"/>
  <path fill="#000000" d="m3.591797,2.876953c-0.198517,0.008 -0.395897,0.047696 -0.591797,0.123047l0,8c0,0 3.1875,-0.125 4,3l0,-8.400391c-0.61999,-1.305598 -2.018585,-2.778654 -3.408203,-2.722656zm3.408203,11.123047c-2.0625,-1.59375 -5,-2 -5,-2l0,-7.599609l-1,-0.400391l0,9l6,2l2,0l6,-2l0,-9l-1,0.400391l0,8l-5,1.599609c-0.666667,-0.25468 -1.443819,-0.209363 -2,0zm6,-11c-1.99252,-0.10655 -4.292695,1.089682 -5.5,2.119141l0,8.464843c1.114771,-0.92464 3.113583,-2.141273 5.5,-2.384766l0,-8.199219z" id="path4176"/>
  <rect fill="none" id="rect4184" y="0" x="20" height="16" width="16"/>
 </g>
</svg>