<svg width="16" height="16" xmlns="http://www.w3.org/2000/svg">
 <metadata id="metadata8">image/svg+xml</metadata>

 <g>
  <title>background</title>
  <rect fill="none" id="canvas_background" height="402" width="582" y="-1" x="-1"/>
 </g>
 <g>
  <title>Layer 1</title>
  <rect fill="none" id="canvas" y="0" x="0" height="16" width="16"/>
  <path fill="#000000" id="hospital" d="m8,1c-3.822488,0 -7,3.088889 -7,7c0,3.911112 3.177512,7 7,7c3.822489,0 7,-3.088889 7,-7c0,-3.911111 -3.177511,-7 -7,-7zm0,1.057778c3.389409,0 6.058296,2.705541 6.058296,5.942222c0,3.236682 -2.668887,5.942222 -6.058296,5.942222c-3.389409,0 -6.058296,-2.70554 -6.058296,-5.942222c0,-3.236681 2.668887,-5.942222 6.058296,-5.942222zm-2.008969,0.964444l0,2.986667l-3.013452,0l0,3.982222l3.013452,0l0,2.986668l4.017938,0l0,-2.986668l3.013453,0l0,-3.982222l-3.013453,0l0,-2.986667l-4.017938,0z"/>
 </g>
</svg>