<svg width="16" height="16" xmlns="http://www.w3.org/2000/svg">
 <metadata id="metadata8">image/svg+xml</metadata>

 <g>
  <title>background</title>
  <rect fill="none" id="canvas_background" height="402" width="582" y="-1" x="-1"/>
 </g>
 <g>
  <title>Layer 1</title>
  <rect fill="none" id="canvas" y="0" x="0" height="16" width="16"/>
  <path fill="#000000" id="hotel" d="m1.625,4c-0.375,0 -0.625,0.25 -0.625,0.75l0,7.25l1.25,0l0,-1.75c0,0 10.380697,0.01892 11.5,0l0,1.75l1.25,0l0,-2.375l0,-3.875c0,-0.329742 -0.13801,-0.75 -0.625,-0.75c-0.48699,0 -0.625,0.420258 -0.625,0.75l0,3.25l-11.5,0l0,-4.25c0,-0.5 -0.25,-0.75 -0.625,-0.75zm2.875,1c-0.828427,0 -1.5,0.671573 -1.5,1.5c0,0.828427 0.671573,1.5 1.5,1.5c0.828427,0 1.5,-0.671573 1.5,-1.5c0,-0.828427 -0.671573,-1.5 -1.5,-1.5zm2,1l0,2l6.5,0c0,-1 -1.036175,-2 -2,-2l-4.5,0z"/>
 </g>
</svg>