<svg width="14" height="14" xmlns="http://www.w3.org/2000/svg">
 <metadata id="metadata8">image/svg+xml</metadata>

 <g>
  <title>background</title>
  <rect fill="none" id="canvas_background" height="402" width="582" y="-1" x="-1"/>
 </g>
 <g>
  <title>Layer 1</title>
  <rect fill="none" width="14" height="14" x="0" y="0" id="canvas"/>
  <path fill="#000000" fill-rule="evenodd" id="path4139-0" d="m11.473506,2.5c0,0.828427 -0.659711,1.5 -1.473506,1.5c-0.813795,0 -1.473506,-0.671573 -1.473506,-1.5c0,-0.828427 0.659711,-1.5 1.473506,-1.5c0.813795,0 1.473506,0.671573 1.473506,1.5zm-8.473506,3.5l2,0l0,3l-2,0l0,-3zm2.473506,-3.5c0,0.828427 -0.659711,1.5 -1.473506,1.5c-0.813795,0 -1.473506,-0.671573 -1.473506,-1.5c0,-0.828427 0.659711,-1.5 1.473506,-1.5c0.813795,0 1.473506,0.671573 1.473506,1.5zm-5.473506,2.5l7,0l0,1l-7,0l0,-1zm1,8l2,-4l1,0l-2,4l-1,0zm6,0l-2,-4l-1,0l2,4l1,0zm2,-7l2,0l0,3l-2,0l0,-3zm-2,-1l7,0l0,1l-7,0l0,-1zm0,9l2,-4l1,0l-2,4l-1,0zm6,0l-2,-4l-1,0l2,4l1,0z"/>
 </g>
</svg>